<svg width="19" height="19" viewBox="0 0 19 19" fill="none" xmlns="http://www.w3.org/2000/svg">
<g clip-path="url(#clip0_1_64)">
<mask id="mask0_1_64" style="mask-type:luminance" maskUnits="userSpaceOnUse" x="0" y="0" width="19" height="19">
<path d="M18.5619 0H0V18.5619H18.5619V0Z" fill="white"/>
</mask>
<g mask="url(#mask0_1_64)">
<path d="M18.5619 9.33741C18.5619 13.9694 15.1635 17.8094 10.7272 18.5062V12.0382H12.8843L13.295 9.36217H10.7272V7.62587C10.7272 6.89344 11.0861 6.18036 12.2354 6.18036H13.4025V3.90188C13.4025 3.90188 12.3429 3.7209 11.3305 3.7209C9.216 3.7209 7.83469 5.00244 7.83469 7.32192V9.36141H5.48429V12.0374H7.83469V18.5055C3.39915 17.8079 0 13.9686 0 9.33741C0 4.212 4.15555 0.0564575 9.28097 0.0564575C14.4064 0.0564575 18.5619 4.21124 18.5619 9.33741Z" fill="white"/>
</g>
</g>
<defs>
<clipPath id="clip0_1_64">
<rect width="18.5619" height="18.5619" fill="white"/>
</clipPath>
</defs>
</svg>
